# xmcd
#
# Track frame offsets: 
#        150
#        20330
#        43905
#        73237
#        96770
#        119775
#        143592
#        165600
#        192392
#        211270
#        226950
#        244087
#        267880
#        283730
#        299137
#        316555
#
# Disc length: 4329 seconds
#
# Revision: 1
# Processed by: cddbd v1.5.2PL0 Copyright (c) Steve Scherf et al.
# Submitted via: ExactAudioCopy v0.99pb4
#
DISCID=f610e710
DTITLE=Romantic Collection - Volume 1
DYEAR=1993
DGENRE=Ballad
TTITLE0=Animals - Hous Of Rising Sun
TTITLE1=Scorpions - Wind Of Change
TTITLE2=Eagles - Hotel California
TTITLE3=Iggy Pop - In The Deathcar
TTITLE4=Ennio Morricone - Chi Mai
TTITLE5=Helloween - Windmill
TTITLE6=Take That - Babe
TTITLE7=Vangelis - La Petite Fille De La Mer
TTITLE8=Lionel Richie - Hello
TTITLE9=Giorgio Moroder - Love Theme from Flashdanse
TTITLE10=Alphaville - Forever Young
TTITLE11=Mylene Farmer - Regrets
TTITLE12=Mr. Big - Wild Wolrld
TTITLE13=Fausto Papetti - Emmanuelle
TTITLE14=Barbara Straisand - Woman In Love
TTITLE15=London Symphonic Orchestra - House Of Rising Sun
EXTD=
EXTT0=
EXTT1=
EXTT2=
EXTT3=
EXTT4=
EXTT5=
EXTT6=
EXTT7=
EXTT8=
EXTT9=
EXTT10=
EXTT11=
EXTT12=
EXTT13=
EXTT14=
EXTT15=
PLAYORDER=
